<svg xmlns="http://www.w3.org/2000/svg" viewBox="0 0 560.33 126.27"><defs><style>.cls-1{fill:#f9ae41;}.cls-2{fill:#ddd;}</style></defs><g id="Layer_2" data-name="Layer 2"><g id="Objects"><path class="cls-1" d="M12.1,117.4h0a2.54,2.54,0,0,1-2.53-2.53V2.53A2.53,2.53,0,0,1,12.1,0h0a2.53,2.53,0,0,1,2.53,2.53V114.87A2.53,2.53,0,0,1,12.1,117.4Z"/><path class="cls-2" d="M280.17,117.4h0a2.53,2.53,0,0,1-2.53-2.53V13.38a2.52,2.52,0,0,1,2.53-2.52h0a2.52,2.52,0,0,1,2.52,2.52V114.87A2.53,2.53,0,0,1,280.17,117.4Z"/><path class="cls-2" d="M146.13,117.4h0a2.53,2.53,0,0,1-2.52-2.53V2.53A2.52,2.52,0,0,1,146.13,0h0a2.53,2.53,0,0,1,2.53,2.53V114.87A2.53,2.53,0,0,1,146.13,117.4Z"/><path class="cls-2" d="M251.44,117.4h0a2.53,2.53,0,0,1-2.52-2.53V2.53A2.52,2.52,0,0,1,251.44,0h0A2.53,2.53,0,0,1,254,2.53V114.87A2.53,2.53,0,0,1,251.44,117.4Z"/><path class="cls-1" d="M21.68,117.4h0a2.53,2.53,0,0,1-2.53-2.53V33a2.53,2.53,0,0,1,2.53-2.53h0A2.52,2.52,0,0,1,24.2,33v81.88A2.53,2.53,0,0,1,21.68,117.4Z"/><path class="cls-2" d="M107.84,117.4h0a2.53,2.53,0,0,1-2.53-2.53V33a2.53,2.53,0,0,1,2.53-2.53h0A2.53,2.53,0,0,1,110.37,33v81.88A2.53,2.53,0,0,1,107.84,117.4Z"/><path class="cls-2" d="M270.59,117.4h0a2.53,2.53,0,0,1-2.53-2.53V33a2.53,2.53,0,0,1,2.53-2.53h0A2.53,2.53,0,0,1,273.12,33v81.88A2.53,2.53,0,0,1,270.59,117.4Z"/><path class="cls-2" d="M174.85,117.4h0a2.53,2.53,0,0,1-2.52-2.53V33a2.52,2.52,0,0,1,2.52-2.53h0A2.53,2.53,0,0,1,177.38,33v81.88A2.53,2.53,0,0,1,174.85,117.4Z"/><path class="cls-2" d="M308.89,117.4h0a2.53,2.53,0,0,1-2.53-2.53V101.28a2.52,2.52,0,0,1,2.53-2.52h0a2.52,2.52,0,0,1,2.52,2.52v13.59A2.53,2.53,0,0,1,308.89,117.4Z"/><path class="cls-1" d="M60,117.4h0a2.53,2.53,0,0,1-2.53-2.53V64.69A2.53,2.53,0,0,1,60,62.16h0a2.53,2.53,0,0,1,2.53,2.53v50.18A2.53,2.53,0,0,1,60,117.4Z"/><path class="cls-2" d="M117.41,117.4h0a2.54,2.54,0,0,1-2.53-2.53V64.69a2.53,2.53,0,0,1,2.53-2.53h0a2.53,2.53,0,0,1,2.53,2.53v50.18A2.53,2.53,0,0,1,117.41,117.4Z"/><path class="cls-1" d="M98.27,117.4h0a2.53,2.53,0,0,1-2.53-2.53V48.07a2.52,2.52,0,0,1,2.53-2.52h0a2.52,2.52,0,0,1,2.52,2.52v66.8A2.53,2.53,0,0,1,98.27,117.4Z"/><path class="cls-2" d="M395.05,117.4h0a2.53,2.53,0,0,1-2.53-2.53V33a2.53,2.53,0,0,1,2.53-2.53h0A2.53,2.53,0,0,1,397.58,33v81.88A2.53,2.53,0,0,1,395.05,117.4Z"/><path class="cls-2" d="M404.62,117.4h0a2.54,2.54,0,0,1-2.53-2.53V64.69a2.53,2.53,0,0,1,2.53-2.53h0a2.53,2.53,0,0,1,2.53,2.53v50.18A2.53,2.53,0,0,1,404.62,117.4Z"/><path class="cls-2" d="M385.48,117.4h0a2.53,2.53,0,0,1-2.53-2.53V21.22a2.53,2.53,0,0,1,2.53-2.53h0A2.52,2.52,0,0,1,388,21.22v93.65A2.53,2.53,0,0,1,385.48,117.4Z"/><path class="cls-1" d="M88.69,117.4h0a2.54,2.54,0,0,1-2.53-2.53V78.22a2.53,2.53,0,0,1,2.53-2.53h0a2.53,2.53,0,0,1,2.53,2.53v36.65A2.53,2.53,0,0,1,88.69,117.4Z"/><path class="cls-2" d="M127,117.4h0a2.53,2.53,0,0,1-2.53-2.53V78.22A2.53,2.53,0,0,1,127,75.69h0a2.53,2.53,0,0,1,2.53,2.53v36.65A2.54,2.54,0,0,1,127,117.4Z"/><path class="cls-2" d="M232.3,117.4h0a2.53,2.53,0,0,1-2.53-2.53V78.22a2.53,2.53,0,0,1,2.53-2.53h0a2.53,2.53,0,0,1,2.53,2.53v36.65A2.54,2.54,0,0,1,232.3,117.4Z"/><path class="cls-2" d="M299.31,117.4h0a2.54,2.54,0,0,1-2.53-2.53V78.22a2.53,2.53,0,0,1,2.53-2.53h0a2.53,2.53,0,0,1,2.53,2.53v36.65A2.53,2.53,0,0,1,299.31,117.4Z"/><path class="cls-2" d="M203.58,117.4h0a2.53,2.53,0,0,1-2.53-2.53v-13a2.52,2.52,0,0,1,2.53-2.52h0a2.52,2.52,0,0,1,2.52,2.52v13A2.53,2.53,0,0,1,203.58,117.4Z"/><path class="cls-1" d="M69.54,117.4h0A2.53,2.53,0,0,1,67,114.87V55.11a2.52,2.52,0,0,1,2.52-2.53h0a2.53,2.53,0,0,1,2.53,2.53v59.76A2.53,2.53,0,0,1,69.54,117.4Z"/><path class="cls-2" d="M165.28,117.4h0a2.53,2.53,0,0,1-2.53-2.53V55.11a2.53,2.53,0,0,1,2.53-2.53h0a2.53,2.53,0,0,1,2.53,2.53v59.76A2.53,2.53,0,0,1,165.28,117.4Z"/><path class="cls-2" d="M241.87,117.4h0a2.53,2.53,0,0,1-2.53-2.53V55.11a2.53,2.53,0,0,1,2.53-2.53h0a2.53,2.53,0,0,1,2.53,2.53v59.76A2.53,2.53,0,0,1,241.87,117.4Z"/><path class="cls-1" d="M40.82,117.4h0a2.54,2.54,0,0,1-2.53-2.53V20.57A2.54,2.54,0,0,1,40.82,18h0a2.53,2.53,0,0,1,2.53,2.53v94.3A2.53,2.53,0,0,1,40.82,117.4Z"/><path class="cls-2" d="M155.71,117.4h0a2.53,2.53,0,0,1-2.53-2.53V20.57A2.53,2.53,0,0,1,155.71,18h0a2.54,2.54,0,0,1,2.53,2.53v94.3A2.54,2.54,0,0,1,155.71,117.4Z"/><path class="cls-2" d="M261,117.4h0a2.53,2.53,0,0,1-2.53-2.53V20.57A2.53,2.53,0,0,1,261,18h0a2.54,2.54,0,0,1,2.53,2.53v94.3A2.54,2.54,0,0,1,261,117.4Z"/><path class="cls-1" d="M31.25,117.4h0a2.53,2.53,0,0,1-2.53-2.53V49a2.53,2.53,0,0,1,2.53-2.53h0A2.53,2.53,0,0,1,33.78,49v65.87A2.53,2.53,0,0,1,31.25,117.4Z"/><path class="cls-2" d="M289.74,117.4h0a2.53,2.53,0,0,1-2.53-2.53V49a2.53,2.53,0,0,1,2.53-2.53h0A2.53,2.53,0,0,1,292.27,49v65.87A2.53,2.53,0,0,1,289.74,117.4Z"/><path class="cls-2" d="M194,117.4h0a2.54,2.54,0,0,1-2.53-2.53V88.22A2.53,2.53,0,0,1,194,85.69h0a2.53,2.53,0,0,1,2.53,2.53v26.65A2.53,2.53,0,0,1,194,117.4Z"/><path class="cls-2" d="M184.43,117.4h0a2.53,2.53,0,0,1-2.53-2.53V68.73a2.52,2.52,0,0,1,2.53-2.52h0A2.53,2.53,0,0,1,187,68.73v46.14A2.54,2.54,0,0,1,184.43,117.4Z"/><path class="cls-2" d="M136.56,117.4h0a2.53,2.53,0,0,1-2.53-2.53V49a2.53,2.53,0,0,1,2.53-2.53h0A2.53,2.53,0,0,1,139.09,49v65.87A2.53,2.53,0,0,1,136.56,117.4Z"/><path class="cls-2" d="M366.33,117.4h0a2.54,2.54,0,0,0,2.53-2.53V2.53A2.53,2.53,0,0,0,366.33,0h0a2.53,2.53,0,0,0-2.53,2.53V114.87A2.53,2.53,0,0,0,366.33,117.4Z"/><path class="cls-2" d="M337.61,117.4h0a2.54,2.54,0,0,0,2.53-2.53V33a2.53,2.53,0,0,0-2.53-2.53h0A2.53,2.53,0,0,0,335.08,33v81.88A2.53,2.53,0,0,0,337.61,117.4Z"/><path class="cls-2" d="M347.18,117.4h0a2.53,2.53,0,0,0,2.53-2.53V55.11a2.53,2.53,0,0,0-2.53-2.53h0a2.53,2.53,0,0,0-2.53,2.53v59.76A2.53,2.53,0,0,0,347.18,117.4Z"/><path class="cls-2" d="M356.75,117.4h0a2.53,2.53,0,0,0,2.53-2.53V20.57A2.53,2.53,0,0,0,356.75,18h0a2.53,2.53,0,0,0-2.52,2.53v94.3A2.53,2.53,0,0,0,356.75,117.4Z"/><path class="cls-2" d="M328,117.4h0a2.53,2.53,0,0,0,2.53-2.53V68.73A2.52,2.52,0,0,0,328,66.21h0a2.53,2.53,0,0,0-2.53,2.52v46.14A2.54,2.54,0,0,0,328,117.4Z"/><path class="cls-2" d="M375.9,117.4h0a2.53,2.53,0,0,0,2.53-2.53V49a2.53,2.53,0,0,0-2.53-2.53h0A2.54,2.54,0,0,0,373.37,49v65.87A2.54,2.54,0,0,0,375.9,117.4Z"/><path class="cls-2" d="M318.46,117.4h0a2.53,2.53,0,0,1-2.53-2.53V89.45a2.53,2.53,0,0,1,2.53-2.53h0A2.53,2.53,0,0,1,321,89.45v25.42A2.53,2.53,0,0,1,318.46,117.4Z"/><path class="cls-1" d="M50.4,117.4h0a2.53,2.53,0,0,1-2.53-2.53V78.22a2.53,2.53,0,0,1,2.53-2.53h0a2.53,2.53,0,0,1,2.53,2.53v36.65A2.54,2.54,0,0,1,50.4,117.4Z"/><path class="cls-1" d="M79.12,117.4h0a2.53,2.53,0,0,1-2.53-2.53v-25a2.52,2.52,0,0,1,2.53-2.52h0a2.53,2.53,0,0,1,2.53,2.52v25A2.54,2.54,0,0,1,79.12,117.4Z"/><path class="cls-2" d="M490.79,117.4h0a2.53,2.53,0,0,1-2.53-2.53V33a2.53,2.53,0,0,1,2.53-2.53h0A2.52,2.52,0,0,1,493.31,33v81.88A2.53,2.53,0,0,1,490.79,117.4Z"/><rect class="cls-2" x="440.39" y="62.16" width="5.06" height="55.24" rx="2.53"/><path class="cls-2" d="M500.36,117.4h0a2.53,2.53,0,0,1-2.53-2.53V64.69a2.53,2.53,0,0,1,2.53-2.53h0a2.53,2.53,0,0,1,2.53,2.53v50.18A2.53,2.53,0,0,1,500.36,117.4Z"/><rect class="cls-2" x="478.68" y="45.55" width="5.06" height="71.85" rx="2.53"/><path class="cls-2" d="M471.64,117.4h0a2.53,2.53,0,0,1-2.53-2.53V78.22a2.53,2.53,0,0,1,2.53-2.53h0a2.53,2.53,0,0,1,2.53,2.53v36.65A2.53,2.53,0,0,1,471.64,117.4Z"/><path class="cls-2" d="M509.93,117.4h0a2.54,2.54,0,0,1-2.53-2.53V78.22a2.53,2.53,0,0,1,2.53-2.53h0a2.53,2.53,0,0,1,2.53,2.53v36.65A2.53,2.53,0,0,1,509.93,117.4Z"/><path class="cls-2" d="M452.49,117.4h0a2.53,2.53,0,0,1-2.53-2.53V55.11a2.53,2.53,0,0,1,2.53-2.53h0A2.53,2.53,0,0,1,455,55.11v59.76A2.53,2.53,0,0,1,452.49,117.4Z"/><path class="cls-2" d="M423.77,117.4h0a2.53,2.53,0,0,1-2.53-2.53V20.57A2.53,2.53,0,0,1,423.77,18h0a2.53,2.53,0,0,1,2.53,2.53v94.3A2.53,2.53,0,0,1,423.77,117.4Z"/><path class="cls-2" d="M414.2,117.4h0a2.53,2.53,0,0,1-2.53-2.53V49a2.53,2.53,0,0,1,2.53-2.53h0A2.54,2.54,0,0,1,416.73,49v65.87A2.54,2.54,0,0,1,414.2,117.4Z"/><path class="cls-2" d="M433.34,117.4h0a2.53,2.53,0,0,1-2.52-2.53V78.22a2.52,2.52,0,0,1,2.52-2.53h0a2.53,2.53,0,0,1,2.53,2.53v36.65A2.53,2.53,0,0,1,433.34,117.4Z"/><path class="cls-2" d="M462.06,117.4h0a2.53,2.53,0,0,1-2.52-2.53v-25a2.52,2.52,0,0,1,2.52-2.52h0a2.52,2.52,0,0,1,2.53,2.52v25A2.53,2.53,0,0,1,462.06,117.4Z"/><rect class="cls-2" x="220.19" y="87.36" width="5.06" height="30.04" rx="2.53"/><path class="cls-2" d="M213.15,117.4h0a2.53,2.53,0,0,1-2.53-2.53V62.53A2.53,2.53,0,0,1,213.15,60h0a2.53,2.53,0,0,1,2.53,2.53v52.34A2.53,2.53,0,0,1,213.15,117.4Z"/><path class="cls-2" d="M557.8,117.4h0a2.54,2.54,0,0,1-2.53-2.53V78.22a2.53,2.53,0,0,1,2.53-2.53h0a2.53,2.53,0,0,1,2.53,2.53v36.65A2.53,2.53,0,0,1,557.8,117.4Z"/><path class="cls-2" d="M529.08,117.4h0a2.53,2.53,0,0,1-2.53-2.53v-13a2.52,2.52,0,0,1,2.53-2.52h0a2.52,2.52,0,0,1,2.53,2.52v13A2.53,2.53,0,0,1,529.08,117.4Z"/><path class="cls-2" d="M519.51,117.4h0a2.53,2.53,0,0,1-2.53-2.53V88.22a2.53,2.53,0,0,1,2.53-2.53h0A2.53,2.53,0,0,1,522,88.22v26.65A2.54,2.54,0,0,1,519.51,117.4Z"/><path class="cls-2" d="M548.23,117.4h0a2.53,2.53,0,0,1-2.53-2.53v-25a2.52,2.52,0,0,1,2.53-2.52h0a2.53,2.53,0,0,1,2.53,2.52v25A2.54,2.54,0,0,1,548.23,117.4Z"/><path class="cls-2" d="M538.65,117.4h0a2.53,2.53,0,0,1-2.52-2.53V62.53A2.53,2.53,0,0,1,538.65,60h0a2.53,2.53,0,0,1,2.53,2.53v52.34A2.53,2.53,0,0,1,538.65,117.4Z"/><rect class="cls-1" y="86.51" width="5.06" height="30.88" rx="2.53"/><path class="cls-1" d="M12.1,126.15h0a2.53,2.53,0,0,1-2.53-2.53V6.33A2.53,2.53,0,0,1,12.1,3.8h0a2.53,2.53,0,0,1,2.53,2.53V123.62A2.53,2.53,0,0,1,12.1,126.15Z"/><path class="cls-2" d="M280.17,126.15h0a2.53,2.53,0,0,1-2.53-2.53v-106a2.53,2.53,0,0,1,2.53-2.53h0a2.53,2.53,0,0,1,2.52,2.53v106A2.52,2.52,0,0,1,280.17,126.15Z"/><path class="cls-2" d="M146.13,126.15h0a2.52,2.52,0,0,1-2.52-2.53V6.33a2.52,2.52,0,0,1,2.52-2.53h0a2.53,2.53,0,0,1,2.53,2.53V123.62A2.53,2.53,0,0,1,146.13,126.15Z"/><path class="cls-2" d="M251.44,126.15h0a2.52,2.52,0,0,1-2.52-2.53V6.33a2.52,2.52,0,0,1,2.52-2.53h0A2.53,2.53,0,0,1,254,6.33V123.62A2.53,2.53,0,0,1,251.44,126.15Z"/><path class="cls-1" d="M21.68,126.15h0a2.53,2.53,0,0,1-2.53-2.53V38.07a2.53,2.53,0,0,1,2.53-2.53h0a2.53,2.53,0,0,1,2.52,2.53v85.55A2.52,2.52,0,0,1,21.68,126.15Z"/><path class="cls-2" d="M107.84,126.15h0a2.53,2.53,0,0,1-2.53-2.53V38.07a2.53,2.53,0,0,1,2.53-2.53h0a2.53,2.53,0,0,1,2.53,2.53v85.55A2.53,2.53,0,0,1,107.84,126.15Z"/><path class="cls-2" d="M270.59,126.15h0a2.53,2.53,0,0,1-2.53-2.53V38.07a2.53,2.53,0,0,1,2.53-2.53h0a2.53,2.53,0,0,1,2.53,2.53v85.55A2.53,2.53,0,0,1,270.59,126.15Z"/><path class="cls-2" d="M174.85,126.15h0a2.52,2.52,0,0,1-2.52-2.53V38.07a2.53,2.53,0,0,1,2.52-2.53h0a2.53,2.53,0,0,1,2.53,2.53v85.55A2.53,2.53,0,0,1,174.85,126.15Z"/><path class="cls-2" d="M308.89,126.27h0a2.53,2.53,0,0,1-2.53-2.53V109.37a2.53,2.53,0,0,1,2.53-2.53h0a2.52,2.52,0,0,1,2.52,2.53v14.37A2.52,2.52,0,0,1,308.89,126.27Z"/><path class="cls-1" d="M60,126.15h0a2.53,2.53,0,0,1-2.53-2.53V71.11A2.53,2.53,0,0,1,60,68.58h0a2.53,2.53,0,0,1,2.53,2.53v52.51A2.53,2.53,0,0,1,60,126.15Z"/><path class="cls-2" d="M117.41,126.15h0a2.53,2.53,0,0,1-2.53-2.53V71.11a2.54,2.54,0,0,1,2.53-2.53h0a2.53,2.53,0,0,1,2.53,2.53v52.51A2.53,2.53,0,0,1,117.41,126.15Z"/><path class="cls-1" d="M98.27,126.15h0a2.53,2.53,0,0,1-2.53-2.53V53.8a2.53,2.53,0,0,1,2.53-2.53h0a2.52,2.52,0,0,1,2.52,2.53v69.82A2.52,2.52,0,0,1,98.27,126.15Z"/><path class="cls-2" d="M395.05,126.27h0a2.53,2.53,0,0,1-2.53-2.53V38.19a2.53,2.53,0,0,1,2.53-2.53h0a2.53,2.53,0,0,1,2.53,2.53v85.55A2.53,2.53,0,0,1,395.05,126.27Z"/><path class="cls-2" d="M404.62,126.27h0a2.53,2.53,0,0,1-2.53-2.53V71.23a2.53,2.53,0,0,1,2.53-2.53h0a2.53,2.53,0,0,1,2.53,2.53v52.51A2.53,2.53,0,0,1,404.62,126.27Z"/><path class="cls-2" d="M385.48,126.27h0a2.53,2.53,0,0,1-2.53-2.53V25.92a2.53,2.53,0,0,1,2.53-2.53h0A2.52,2.52,0,0,1,388,25.92v97.82A2.52,2.52,0,0,1,385.48,126.27Z"/><path class="cls-1" d="M88.69,126.15h0a2.53,2.53,0,0,1-2.53-2.53V85.21a2.53,2.53,0,0,1,2.53-2.53h0a2.53,2.53,0,0,1,2.53,2.53v38.41A2.53,2.53,0,0,1,88.69,126.15Z"/><path class="cls-2" d="M127,126.15h0a2.53,2.53,0,0,1-2.53-2.53V85.21A2.53,2.53,0,0,1,127,82.68h0a2.53,2.53,0,0,1,2.53,2.53v38.41A2.53,2.53,0,0,1,127,126.15Z"/><path class="cls-2" d="M232.3,126.15h0a2.53,2.53,0,0,1-2.53-2.53V85.21a2.53,2.53,0,0,1,2.53-2.53h0a2.53,2.53,0,0,1,2.53,2.53v38.41A2.53,2.53,0,0,1,232.3,126.15Z"/><path class="cls-2" d="M299.31,126.15h0a2.53,2.53,0,0,1-2.53-2.53V85.21a2.53,2.53,0,0,1,2.53-2.53h0a2.53,2.53,0,0,1,2.53,2.53v38.41A2.53,2.53,0,0,1,299.31,126.15Z"/><path class="cls-2" d="M203.58,126.15h0a2.53,2.53,0,0,1-2.53-2.53V109.91a2.53,2.53,0,0,1,2.53-2.53h0a2.52,2.52,0,0,1,2.52,2.53v13.71A2.52,2.52,0,0,1,203.58,126.15Z"/><path class="cls-1" d="M69.54,126.15h0A2.52,2.52,0,0,1,67,123.62V61.13a2.52,2.52,0,0,1,2.52-2.53h0a2.53,2.53,0,0,1,2.53,2.53v62.49A2.53,2.53,0,0,1,69.54,126.15Z"/><path class="cls-2" d="M165.28,126.15h0a2.53,2.53,0,0,1-2.53-2.53V61.13a2.53,2.53,0,0,1,2.53-2.53h0a2.53,2.53,0,0,1,2.53,2.53v62.49A2.53,2.53,0,0,1,165.28,126.15Z"/><path class="cls-2" d="M241.87,126.15h0a2.53,2.53,0,0,1-2.53-2.53V61.13a2.53,2.53,0,0,1,2.53-2.53h0a2.53,2.53,0,0,1,2.53,2.53v62.49A2.53,2.53,0,0,1,241.87,126.15Z"/><path class="cls-1" d="M40.82,126.15h0a2.53,2.53,0,0,1-2.53-2.53V25.13a2.53,2.53,0,0,1,2.53-2.52h0a2.52,2.52,0,0,1,2.53,2.52v98.49A2.53,2.53,0,0,1,40.82,126.15Z"/><path class="cls-2" d="M155.71,126.15h0a2.53,2.53,0,0,1-2.53-2.53V25.13a2.52,2.52,0,0,1,2.53-2.52h0a2.53,2.53,0,0,1,2.53,2.52v98.49A2.53,2.53,0,0,1,155.71,126.15Z"/><path class="cls-2" d="M261,126.15h0a2.53,2.53,0,0,1-2.53-2.53V25.13A2.52,2.52,0,0,1,261,22.61h0a2.53,2.53,0,0,1,2.53,2.52v98.49A2.53,2.53,0,0,1,261,126.15Z"/><path class="cls-1" d="M31.25,126.15h0a2.53,2.53,0,0,1-2.53-2.53V54.76a2.52,2.52,0,0,1,2.53-2.52h0a2.52,2.52,0,0,1,2.53,2.52v68.86A2.53,2.53,0,0,1,31.25,126.15Z"/><path class="cls-2" d="M289.74,126.15h0a2.53,2.53,0,0,1-2.53-2.53V54.76a2.52,2.52,0,0,1,2.53-2.52h0a2.52,2.52,0,0,1,2.53,2.52v68.86A2.53,2.53,0,0,1,289.74,126.15Z"/><path class="cls-2" d="M194,126.15h0a2.53,2.53,0,0,1-2.53-2.53v-28A2.53,2.53,0,0,1,194,93.11h0a2.53,2.53,0,0,1,2.53,2.53v28A2.53,2.53,0,0,1,194,126.15Z"/><path class="cls-2" d="M184.43,126.15h0a2.53,2.53,0,0,1-2.53-2.53V75.33a2.53,2.53,0,0,1,2.53-2.53h0A2.53,2.53,0,0,1,187,75.33v48.29A2.53,2.53,0,0,1,184.43,126.15Z"/><path class="cls-2" d="M136.56,126.15h0a2.53,2.53,0,0,1-2.53-2.53V54.76a2.52,2.52,0,0,1,2.53-2.52h0a2.52,2.52,0,0,1,2.53,2.52v68.86A2.53,2.53,0,0,1,136.56,126.15Z"/><path class="cls-2" d="M366.33,126.27h0a2.53,2.53,0,0,0,2.53-2.53V6.44a2.54,2.54,0,0,0-2.53-2.53h0a2.53,2.53,0,0,0-2.53,2.53v117.3A2.53,2.53,0,0,0,366.33,126.27Z"/><path class="cls-2" d="M337.61,126.27h0a2.53,2.53,0,0,0,2.53-2.53V38.19a2.53,2.53,0,0,0-2.53-2.53h0a2.53,2.53,0,0,0-2.53,2.53v85.55A2.53,2.53,0,0,0,337.61,126.27Z"/><path class="cls-2" d="M347.18,126.27h0a2.53,2.53,0,0,0,2.53-2.53V61.25a2.53,2.53,0,0,0-2.53-2.53h0a2.53,2.53,0,0,0-2.53,2.53v62.49A2.53,2.53,0,0,0,347.18,126.27Z"/><path class="cls-2" d="M356.75,126.27h0a2.53,2.53,0,0,0,2.53-2.53V25.25a2.53,2.53,0,0,0-2.53-2.53h0a2.52,2.52,0,0,0-2.52,2.53v98.49A2.52,2.52,0,0,0,356.75,126.27Z"/><path class="cls-2" d="M328,126.27h0a2.53,2.53,0,0,0,2.53-2.53V75.44A2.52,2.52,0,0,0,328,72.92h0a2.53,2.53,0,0,0-2.53,2.52v48.3A2.53,2.53,0,0,0,328,126.27Z"/><path class="cls-2" d="M375.9,126.27h0a2.53,2.53,0,0,0,2.53-2.53V54.88a2.53,2.53,0,0,0-2.53-2.53h0a2.53,2.53,0,0,0-2.53,2.53v68.86A2.53,2.53,0,0,0,375.9,126.27Z"/><path class="cls-2" d="M318.46,126.27h0a2.53,2.53,0,0,1-2.53-2.53V97a2.53,2.53,0,0,1,2.53-2.53h0A2.53,2.53,0,0,1,321,97v26.71A2.53,2.53,0,0,1,318.46,126.27Z"/><path class="cls-1" d="M50.4,126.15h0a2.53,2.53,0,0,1-2.53-2.53V85.21a2.53,2.53,0,0,1,2.53-2.53h0a2.53,2.53,0,0,1,2.53,2.53v38.41A2.53,2.53,0,0,1,50.4,126.15Z"/><path class="cls-1" d="M79.12,126.15h0a2.53,2.53,0,0,1-2.53-2.53V97.37a2.53,2.53,0,0,1,2.53-2.53h0a2.54,2.54,0,0,1,2.53,2.53v26.25A2.53,2.53,0,0,1,79.12,126.15Z"/><path class="cls-2" d="M490.79,126.27h0a2.53,2.53,0,0,1-2.53-2.53V38.19a2.53,2.53,0,0,1,2.53-2.53h0a2.52,2.52,0,0,1,2.52,2.53v85.55A2.52,2.52,0,0,1,490.79,126.27Z"/><rect class="cls-2" x="440.39" y="68.7" width="5.06" height="57.57" rx="2.53"/><path class="cls-2" d="M500.36,126.27h0a2.53,2.53,0,0,1-2.53-2.53V71.23a2.53,2.53,0,0,1,2.53-2.53h0a2.53,2.53,0,0,1,2.53,2.53v52.51A2.53,2.53,0,0,1,500.36,126.27Z"/><rect class="cls-2" x="478.68" y="51.38" width="5.06" height="74.88" rx="2.53"/><path class="cls-2" d="M471.64,126.27h0a2.53,2.53,0,0,1-2.53-2.53V85.33a2.53,2.53,0,0,1,2.53-2.53h0a2.53,2.53,0,0,1,2.53,2.53v38.41A2.53,2.53,0,0,1,471.64,126.27Z"/><path class="cls-2" d="M509.93,126.27h0a2.53,2.53,0,0,1-2.53-2.53V85.33a2.53,2.53,0,0,1,2.53-2.53h0a2.53,2.53,0,0,1,2.53,2.53v38.41A2.53,2.53,0,0,1,509.93,126.27Z"/><path class="cls-2" d="M452.49,126.27h0a2.53,2.53,0,0,1-2.53-2.53V61.25a2.53,2.53,0,0,1,2.53-2.53h0A2.53,2.53,0,0,1,455,61.25v62.49A2.53,2.53,0,0,1,452.49,126.27Z"/><path class="cls-2" d="M423.77,126.27h0a2.53,2.53,0,0,1-2.53-2.53V25.25a2.53,2.53,0,0,1,2.53-2.53h0a2.53,2.53,0,0,1,2.53,2.53v98.49A2.53,2.53,0,0,1,423.77,126.27Z"/><path class="cls-2" d="M414.2,126.27h0a2.53,2.53,0,0,1-2.53-2.53V54.88a2.53,2.53,0,0,1,2.53-2.53h0a2.53,2.53,0,0,1,2.53,2.53v68.86A2.53,2.53,0,0,1,414.2,126.27Z"/><path class="cls-2" d="M433.34,126.27h0a2.52,2.52,0,0,1-2.52-2.53V85.33a2.52,2.52,0,0,1,2.52-2.53h0a2.53,2.53,0,0,1,2.53,2.53v38.41A2.53,2.53,0,0,1,433.34,126.27Z"/><path class="cls-2" d="M462.06,126.27h0a2.52,2.52,0,0,1-2.52-2.53V97.49A2.52,2.52,0,0,1,462.06,95h0a2.53,2.53,0,0,1,2.53,2.53v26.25A2.53,2.53,0,0,1,462.06,126.27Z"/><rect class="cls-2" x="220.19" y="94.84" width="5.06" height="31.31" rx="2.53"/><path class="cls-2" d="M213.15,126.15h0a2.53,2.53,0,0,1-2.53-2.53V68.87a2.53,2.53,0,0,1,2.53-2.53h0a2.53,2.53,0,0,1,2.53,2.53v54.75A2.53,2.53,0,0,1,213.15,126.15Z"/><path class="cls-2" d="M557.8,126.27h0a2.53,2.53,0,0,1-2.53-2.53V85.33a2.53,2.53,0,0,1,2.53-2.53h0a2.53,2.53,0,0,1,2.53,2.53v38.41A2.53,2.53,0,0,1,557.8,126.27Z"/><path class="cls-2" d="M529.08,126.27h0a2.53,2.53,0,0,1-2.53-2.53V110a2.53,2.53,0,0,1,2.53-2.53h0a2.53,2.53,0,0,1,2.53,2.53v13.71A2.53,2.53,0,0,1,529.08,126.27Z"/><path class="cls-2" d="M519.51,126.27h0a2.53,2.53,0,0,1-2.53-2.53v-28a2.52,2.52,0,0,1,2.53-2.52h0A2.53,2.53,0,0,1,522,95.75v28A2.53,2.53,0,0,1,519.51,126.27Z"/><path class="cls-2" d="M548.23,126.27h0a2.53,2.53,0,0,1-2.53-2.53V97.49A2.53,2.53,0,0,1,548.23,95h0a2.53,2.53,0,0,1,2.53,2.53v26.25A2.53,2.53,0,0,1,548.23,126.27Z"/><path class="cls-2" d="M538.65,126.27h0a2.52,2.52,0,0,1-2.52-2.53V69a2.53,2.53,0,0,1,2.52-2.53h0A2.53,2.53,0,0,1,541.18,69v54.76A2.53,2.53,0,0,1,538.65,126.27Z"/><rect class="cls-1" y="93.97" width="5.06" height="32.19" rx="2.53"/></g></g></svg>